<svg xmlns="http://www.w3.org/2000/svg" viewBox="0 0 181 284.43">
<defs>
<style>.a{fill:#315399;}.b{fill:#ed1c25;}.c{fill:#f3ec18;}.d{fill:#fff;}</style>
</defs>

<rect class="a" x="103.43" y="181" width="51.71" height="25.86"/>
<rect class="b" x="103.43" y="129.29" width="51.71" height="25.86"/>
<rect class="b" x="25.86" y="181" width="51.71" height="25.86"/>
<rect class="c" x="25.86" y="77.57" width="129.29" height="25.86"/>
<rect class="a" x="25.86" y="129.29" width="51.71" height="25.86"/>
<path class="d" d="M157.31,326.09l-.57,14.42a13,13,0,0,1-6,1.81q-6.25,0-10.53-6.14-4.77-6.89-4.78-19.5,0-11.81,4.49-18.95t12-7.12a11.34,11.34,0,0,1,5,1.23V306.1c-1.5-2-3-3-4.61-3q-3.09,0-4.83,3.53t-1.74,9.83a30.5,30.5,0,0,0,.43,5.43,15.49,15.49,0,0,0,1.25,4.05,6.7,6.7,0,0,0,2,2.52,4.45,4.45,0,0,0,2.7.87C153.81,329.32,155.56,328.25,157.31,326.09Z" transform="translate(-109.56 -57.9)"/>
<path class="d" d="M188.66,316.65q0,11.42-3.89,18.56t-10.07,7.11q-5.5,0-9.44-5.46-4.95-6.92-4.95-20.76,0-13.26,5.17-20.28,3.84-5.2,9.1-5.21,6.45,0,10.26,7.05T188.66,316.65Zm-10.46.09q0-13.55-3.57-13.55-1.78,0-2.85,3.56a34.35,34.35,0,0,0-1,9.7,37.93,37.93,0,0,0,1,9.78q1,3.48,2.72,3.48c1.19,0,2.1-1.14,2.75-3.43A35.37,35.37,0,0,0,178.2,316.74Z" transform="translate(-109.56 -57.9)"/>
<path class="d" d="M193,341.45V291.52h8.69c5,0,8.85,1.79,11.61,5.36q5.46,7,5.46,19.64,0,12.42-4.61,19.17-3.93,5.76-11.74,5.76ZM203,329.39q5.4-.36,5.4-12.49a26.21,26.21,0,0,0-1.37-9.44q-1.38-3.49-3.72-3.49H203Z" transform="translate(-109.56 -57.9)"/>
<path class="d" d="M223,341.45V291.52h18.71v11.74h-8.64v7.27h7.75v11.29h-7.75v7.63h8.64v12Z" transform="translate(-109.56 -57.9)"/>
<path class="d" d="M245.24,340.22V324.54q3,5.43,6.42,5.43a2.71,2.71,0,0,0,2.12-.92,3.35,3.35,0,0,0,.82-2.31,5.73,5.73,0,0,0-1.78-3.92l-1.64-1.71a27,27,0,0,1-2.81-3.28,17.32,17.32,0,0,1-1.88-3.37,17,17,0,0,1-1.06-3.57,21.06,21.06,0,0,1-.34-3.88,24,24,0,0,1,1.21-7.31,20.64,20.64,0,0,1,1.4-3.25,13.21,13.21,0,0,1,1.83-2.61,8.88,8.88,0,0,1,6.89-3.23,12.55,12.55,0,0,1,7.24,2.56v15.26a13.56,13.56,0,0,0-2.8-4,4.62,4.62,0,0,0-3.09-1.47,2.36,2.36,0,0,0-1.91.91,3,3,0,0,0-.77,2.1,5.62,5.62,0,0,0,2,4l1.59,1.58a19.5,19.5,0,0,1,4.57,6.31,19,19,0,0,1,1.4,7.57q0,7.37-3.36,12.16t-8.5,4.78A16.63,16.63,0,0,1,245.24,340.22Z" transform="translate(-109.56 -57.9)"/>
<path class="d" d="M144.51,82.66h6.68v1.49a82.77,82.77,0,0,1-.43,9,36.84,36.84,0,0,1-1.41,6.8c-1.5,4.73-3.42,7.09-5.73,7.09s-4.21-2.28-5.82-6.85a50.13,50.13,0,0,1-2.42-16.53A49.73,49.73,0,0,1,137.84,67q2.46-6.89,6-6.89a4.58,4.58,0,0,1,3.54,2.17,25.72,25.72,0,0,1,3.09,7L148.73,74q-2-7.41-4.85-7.41-2.56,0-4.31,4.95a36.64,36.64,0,0,0-1.74,12.19,34.17,34.17,0,0,0,1.94,12.45q1.81,4.55,3.93,4.55c1.2,0,2.28-1.14,3.24-3.4a23.49,23.49,0,0,0,1.6-8.21h-4Z" transform="translate(-109.56 -57.9)"/>
<path class="d" d="M163.19,67.39H156.7V78.26H163v6.42h-6.3V99.8h6.49v6.41h-8.93V61h8.93Z" transform="translate(-109.56 -57.9)"/>
<path class="d" d="M166.39,106.21V57.9l11.8,34.51V61h2.44v48l-11.8-34.43v31.67Z" transform="translate(-109.56 -57.9)"/>
<path class="d" d="M193.43,67.39H187V78.26h6.3v6.42H187V99.8h6.48v6.41h-8.92V61h8.92Z" transform="translate(-109.56 -57.9)"/>
<path class="d" d="M202.12,86.93l5,19.28h-3L199.52,87.7h-.44v18.51h-2.44V61h2.86c2.14,0,3.68,1.13,4.63,3.37a26,26,0,0,1,1.57,9.91,30.72,30.72,0,0,1-1,8.26C204.06,84.81,203.19,86.29,202.12,86.93Zm-3-5.18h.78q3.46,0,3.46-7.42c0-4.62-1.12-6.94-3.37-6.94h-.87Z" transform="translate(-109.56 -57.9)"/>
<path class="d" d="M219.06,95.23h-6.93l-1.8,11H207.7l8-48.08,7.72,48.08h-2.67Zm-1-6.42-2.39-15.38-2.52,15.38Z" transform="translate(-109.56 -57.9)"/>
<path class="d" d="M229,67.39v38.82h-2.44V67.39h-3.72V61h9.87v6.42Z" transform="translate(-109.56 -57.9)"/>
<path class="d" d="M237.34,61v45.24H234.9V61Z" transform="translate(-109.56 -57.9)"/>
<path class="d" d="M242.05,61l4.47,31.35L251.06,61h2.67l-7.26,48.64L239.37,61Z" transform="translate(-109.56 -57.9)"/>
<path class="d" d="M264.67,67.39h-6.49V78.26h6.3v6.42h-6.3V99.8h6.49v6.41h-8.93V61h8.93Z" transform="translate(-109.56 -57.9)"/>
</svg>